<mxfile host="65bd71144e">
    <diagram id="wILTTGv9Xmm6xn3bMW7b" name="Página Web">
        <mxGraphModel dx="962" dy="563" grid="1" gridSize="10" guides="1" tooltips="1" connect="1" arrows="1" fold="1" page="1" pageScale="1" pageWidth="827" pageHeight="1169" math="0" shadow="0">
            <root>
                <mxCell id="0"/>
                <mxCell id="1" parent="0"/>
                <mxCell id="2" value="Usuário" style="shape=umlActor;verticalLabelPosition=bottom;verticalAlign=top;html=1;outlineConnect=0;" parent="1" vertex="1">
                    <mxGeometry x="210" y="500" width="30" height="60" as="geometry"/>
                </mxCell>
                <mxCell id="8" value="" style="edgeStyle=none;html=1;" parent="1" source="3" target="5" edge="1">
                    <mxGeometry relative="1" as="geometry"/>
                </mxCell>
                <mxCell id="3" value="Acessar página web" style="rounded=0;whiteSpace=wrap;html=1;" parent="1" vertex="1">
                    <mxGeometry x="380" y="300" width="120" height="60" as="geometry"/>
                </mxCell>
                <mxCell id="7" value="" style="edgeStyle=none;html=1;" parent="1" source="5" target="6" edge="1">
                    <mxGeometry relative="1" as="geometry"/>
                </mxCell>
                <mxCell id="5" value="Preencher os campos indicados no formulário" style="rounded=0;whiteSpace=wrap;html=1;" parent="1" vertex="1">
                    <mxGeometry x="380" y="410" width="120" height="60" as="geometry"/>
                </mxCell>
                <mxCell id="6" value="Submeter o formulário clicando no botão" style="rounded=0;whiteSpace=wrap;html=1;" parent="1" vertex="1">
                    <mxGeometry x="380" y="530" width="120" height="60" as="geometry"/>
                </mxCell>
                <mxCell id="9" value="" style="endArrow=none;dashed=1;html=1;" parent="1" edge="1">
                    <mxGeometry width="50" height="50" relative="1" as="geometry">
                        <mxPoint x="240" y="490" as="sourcePoint"/>
                        <mxPoint x="370" y="350" as="targetPoint"/>
                    </mxGeometry>
                </mxCell>
                <mxCell id="10" value="Início" style="rounded=1;whiteSpace=wrap;html=1;" parent="1" vertex="1">
                    <mxGeometry x="720" y="70" width="120" height="60" as="geometry"/>
                </mxCell>
                <mxCell id="11" value="" style="endArrow=none;dashed=1;html=1;" parent="1" edge="1">
                    <mxGeometry width="50" height="50" relative="1" as="geometry">
                        <mxPoint x="780" y="990" as="sourcePoint"/>
                        <mxPoint x="780" y="130" as="targetPoint"/>
                    </mxGeometry>
                </mxCell>
                <mxCell id="12" value="" style="endArrow=none;dashed=1;html=1;" parent="1" edge="1">
                    <mxGeometry width="50" height="50" relative="1" as="geometry">
                        <mxPoint x="780" y="200" as="sourcePoint"/>
                        <mxPoint x="930" y="200" as="targetPoint"/>
                    </mxGeometry>
                </mxCell>
                <mxCell id="13" value="Titulo Página" style="shape=document;whiteSpace=wrap;html=1;boundedLbl=1;" parent="1" vertex="1">
                    <mxGeometry x="930" y="160" width="120" height="80" as="geometry"/>
                </mxCell>
                <mxCell id="14" value="" style="endArrow=none;dashed=1;html=1;" parent="1" edge="1">
                    <mxGeometry width="50" height="50" relative="1" as="geometry">
                        <mxPoint x="780" y="329.5" as="sourcePoint"/>
                        <mxPoint x="930" y="330" as="targetPoint"/>
                    </mxGeometry>
                </mxCell>
                <mxCell id="17" value="" style="edgeStyle=none;html=1;" parent="1" source="15" target="16" edge="1">
                    <mxGeometry relative="1" as="geometry"/>
                </mxCell>
                <mxCell id="15" value="Form" style="shape=document;whiteSpace=wrap;html=1;boundedLbl=1;" parent="1" vertex="1">
                    <mxGeometry x="930" y="290" width="120" height="80" as="geometry"/>
                </mxCell>
                <mxCell id="20" value="" style="edgeStyle=none;html=1;" parent="1" source="16" target="19" edge="1">
                    <mxGeometry relative="1" as="geometry"/>
                </mxCell>
                <mxCell id="16" value="Campo Usuário" style="shape=document;whiteSpace=wrap;html=1;boundedLbl=1;" parent="1" vertex="1">
                    <mxGeometry x="930" y="410" width="120" height="80" as="geometry"/>
                </mxCell>
                <mxCell id="22" value="" style="edgeStyle=none;html=1;" parent="1" source="19" target="21" edge="1">
                    <mxGeometry relative="1" as="geometry"/>
                </mxCell>
                <mxCell id="19" value="Campo Senha" style="shape=document;whiteSpace=wrap;html=1;boundedLbl=1;" parent="1" vertex="1">
                    <mxGeometry x="930" y="530" width="120" height="80" as="geometry"/>
                </mxCell>
                <mxCell id="24" value="" style="edgeStyle=none;html=1;" parent="1" source="21" target="23" edge="1">
                    <mxGeometry relative="1" as="geometry"/>
                </mxCell>
                <mxCell id="21" value="Campo Senha" style="shape=document;whiteSpace=wrap;html=1;boundedLbl=1;" parent="1" vertex="1">
                    <mxGeometry x="930" y="670" width="120" height="80" as="geometry"/>
                </mxCell>
                <mxCell id="23" value="Button Submit" style="shape=document;whiteSpace=wrap;html=1;boundedLbl=1;" parent="1" vertex="1">
                    <mxGeometry x="930" y="810" width="120" height="80" as="geometry"/>
                </mxCell>
                <mxCell id="25" value="Fim" style="rounded=1;whiteSpace=wrap;html=1;" parent="1" vertex="1">
                    <mxGeometry x="720" y="980" width="120" height="60" as="geometry"/>
                </mxCell>
            </root>
        </mxGraphModel>
    </diagram>
    <diagram id="4P5FYI9k8aHaOABbMqhe" name="Script">
        <mxGraphModel dx="135" dy="563" grid="1" gridSize="10" guides="1" tooltips="1" connect="1" arrows="1" fold="1" page="1" pageScale="1" pageWidth="827" pageHeight="1169" math="0" shadow="0">
            <root>
                <mxCell id="0"/>
                <mxCell id="1" parent="0"/>
                <mxCell id="FlFq6G9Ch-VmaMjplq3s-1" value="" style="edgeStyle=none;html=1;" parent="1" source="FlFq6G9Ch-VmaMjplq3s-2" edge="1">
                    <mxGeometry relative="1" as="geometry">
                        <mxPoint x="1241" y="170" as="targetPoint"/>
                    </mxGeometry>
                </mxCell>
                <mxCell id="FlFq6G9Ch-VmaMjplq3s-2" value="Início" style="rounded=1;whiteSpace=wrap;html=1;" parent="1" vertex="1">
                    <mxGeometry x="1181" y="60" width="120" height="60" as="geometry"/>
                </mxCell>
                <mxCell id="FlFq6G9Ch-VmaMjplq3s-3" value="" style="edgeStyle=none;html=1;" parent="1" target="FlFq6G9Ch-VmaMjplq3s-5" edge="1">
                    <mxGeometry relative="1" as="geometry">
                        <mxPoint x="1241" y="230" as="sourcePoint"/>
                    </mxGeometry>
                </mxCell>
                <mxCell id="FlFq6G9Ch-VmaMjplq3s-4" value="" style="edgeStyle=none;html=1;" parent="1" source="FlFq6G9Ch-VmaMjplq3s-5" target="FlFq6G9Ch-VmaMjplq3s-6" edge="1">
                    <mxGeometry relative="1" as="geometry"/>
                </mxCell>
                <mxCell id="FlFq6G9Ch-VmaMjplq3s-5" value="Adição do event lister do tipo submit que ativa uma função anonima de validação de senhas" style="rounded=0;whiteSpace=wrap;html=1;" parent="1" vertex="1">
                    <mxGeometry x="1181" y="310" width="120" height="60" as="geometry"/>
                </mxCell>
                <mxCell id="FlFq6G9Ch-VmaMjplq3s-6" value="Fim" style="rounded=1;whiteSpace=wrap;html=1;" parent="1" vertex="1">
                    <mxGeometry x="1181" y="420" width="120" height="60" as="geometry"/>
                </mxCell>
                <mxCell id="FlFq6G9Ch-VmaMjplq3s-7" value="Obtenção do elemento form" style="shape=parallelogram;perimeter=parallelogramPerimeter;whiteSpace=wrap;html=1;fixedSize=1;" parent="1" vertex="1">
                    <mxGeometry x="1181" y="170" width="120" height="60" as="geometry"/>
                </mxCell>
            </root>
        </mxGraphModel>
    </diagram>
    <diagram id="7gZf-viyaIeSQnxxHvea" name="Função anônima">
        <mxGraphModel dx="135" dy="563" grid="1" gridSize="10" guides="1" tooltips="1" connect="1" arrows="1" fold="1" page="1" pageScale="1" pageWidth="827" pageHeight="1169" math="0" shadow="0">
            <root>
                <mxCell id="0"/>
                <mxCell id="1" parent="0"/>
                <mxCell id="nxCF1prZif2_ZJ7ZdMr4-1" value="" style="edgeStyle=none;html=1;" edge="1" parent="1" source="nxCF1prZif2_ZJ7ZdMr4-2">
                    <mxGeometry relative="1" as="geometry">
                        <mxPoint x="1236" y="210" as="targetPoint"/>
                    </mxGeometry>
                </mxCell>
                <mxCell id="nxCF1prZif2_ZJ7ZdMr4-2" value="Inclusão do PreventDefaut para o parametro da função anônima" style="rounded=0;whiteSpace=wrap;html=1;" vertex="1" parent="1">
                    <mxGeometry x="1176" y="70" width="120" height="60" as="geometry"/>
                </mxCell>
                <mxCell id="nxCF1prZif2_ZJ7ZdMr4-3" value="" style="edgeStyle=none;html=1;" edge="1" parent="1" source="nxCF1prZif2_ZJ7ZdMr4-4" target="nxCF1prZif2_ZJ7ZdMr4-7">
                    <mxGeometry relative="1" as="geometry"/>
                </mxCell>
                <mxCell id="nxCF1prZif2_ZJ7ZdMr4-4" value="Obtenção dos elementos input" style="shape=parallelogram;perimeter=parallelogramPerimeter;whiteSpace=wrap;html=1;fixedSize=1;" vertex="1" parent="1">
                    <mxGeometry x="1176" y="210" width="120" height="60" as="geometry"/>
                </mxCell>
                <mxCell id="nxCF1prZif2_ZJ7ZdMr4-5" value="" style="edgeStyle=none;html=1;" edge="1" parent="1" source="nxCF1prZif2_ZJ7ZdMr4-7" target="nxCF1prZif2_ZJ7ZdMr4-8">
                    <mxGeometry relative="1" as="geometry"/>
                </mxCell>
                <mxCell id="nxCF1prZif2_ZJ7ZdMr4-6" value="" style="edgeStyle=none;html=1;" edge="1" parent="1" source="nxCF1prZif2_ZJ7ZdMr4-7" target="nxCF1prZif2_ZJ7ZdMr4-9">
                    <mxGeometry relative="1" as="geometry"/>
                </mxCell>
                <mxCell id="nxCF1prZif2_ZJ7ZdMr4-7" value="Se senhas forem iguais" style="rhombus;whiteSpace=wrap;html=1;" vertex="1" parent="1">
                    <mxGeometry x="1196" y="340" width="80" height="80" as="geometry"/>
                </mxCell>
                <mxCell id="nxCF1prZif2_ZJ7ZdMr4-8" value="Apresentar alerta de boas vindas" style="whiteSpace=wrap;html=1;" vertex="1" parent="1">
                    <mxGeometry x="1406" y="350" width="110" height="60" as="geometry"/>
                </mxCell>
                <mxCell id="nxCF1prZif2_ZJ7ZdMr4-9" value="Apresentar alerta de erro na autenticação" style="rhombus;whiteSpace=wrap;html=1;" vertex="1" parent="1">
                    <mxGeometry x="966" y="340" width="80" height="80" as="geometry"/>
                </mxCell>
            </root>
        </mxGraphModel>
    </diagram>
</mxfile>